<svg width="40" height="40" viewBox="0 0 40 40" fill="none" xmlns="http://www.w3.org/2000/svg">
<path d="M25.0899 10.8213C24.1702 10.0649 23.0933 9.52332 21.9376 9.23613C20.7819 8.94895 19.5767 8.92338 18.4099 9.16129C16.8563 9.47511 15.4309 10.2434 14.3146 11.3686C13.1983 12.4938 12.4414 13.9252 12.1399 15.4813C11.9198 16.648 11.9598 17.8489 12.2571 18.9984C12.5544 20.1479 13.1017 21.2176 13.8599 22.1313C14.5636 22.9254 14.967 23.9408 14.9999 25.0013V28.0013C14.9999 28.7969 15.316 29.56 15.8786 30.1226C16.4412 30.6852 17.2043 31.0013 17.9999 31.0013H21.9999C22.7956 31.0013 23.5587 30.6852 24.1213 30.1226C24.6839 29.56 24.9999 28.7969 24.9999 28.0013V25.1913C25.0335 24.0205 25.4637 22.8957 26.2199 22.0013C27.5451 20.3621 28.1697 18.2661 27.9581 16.1689C27.7465 14.0717 26.7158 12.1428 25.0899 10.8013V10.8213ZM22.9999 28.0013C22.9999 28.2665 22.8946 28.5209 22.707 28.7084C22.5195 28.8959 22.2652 29.0013 21.9999 29.0013H17.9999C17.7347 29.0013 17.4804 28.8959 17.2928 28.7084C17.1053 28.5209 16.9999 28.2665 16.9999 28.0013V27.0013H22.9999V28.0013ZM24.6699 20.7613C23.6644 21.9539 23.0778 23.4433 22.9999 25.0013H20.9999V22.0013C20.9999 21.7361 20.8946 21.4817 20.707 21.2942C20.5195 21.1066 20.2652 21.0013 19.9999 21.0013C19.7347 21.0013 19.4804 21.1066 19.2928 21.2942C19.1053 21.4817 18.9999 21.7361 18.9999 22.0013V25.0013H16.9999C16.9736 23.4694 16.4069 21.9961 15.3999 20.8413C14.7356 20.0453 14.2888 19.0907 14.1033 18.0706C13.9177 17.0506 13.9996 15.9998 14.341 15.0208C14.6825 14.0418 15.2718 13.168 16.0515 12.4846C16.8312 11.8012 17.7747 11.3315 18.7899 11.1213C19.6625 10.9416 20.5641 10.9585 21.4293 11.1708C22.2945 11.383 23.1016 11.7852 23.792 12.3482C24.4824 12.9113 25.0387 13.621 25.4206 14.4258C25.8025 15.2306 26.0004 16.1104 25.9999 17.0013C26.0073 18.3712 25.537 19.7008 24.6699 20.7613V20.7613Z" fill="white"/>
</svg>
