<svg width="16" height="17" viewBox="0 0 16 17" fill="none" xmlns="http://www.w3.org/2000/svg">
<path d="M11.1752 11.2789L12.0641 10.279C12.203 10.1228 12.4447 10.2322 12.4447 10.4571V15.0002C12.4447 15.8282 11.8475 16.5 11.1114 16.5H1.33336C0.597235 16.5 0 15.8282 0 15.0002V4.00183C0 3.17383 0.597235 2.50205 1.33336 2.50205H8.93075C9.12797 2.50205 9.22798 2.77076 9.08909 2.93011L8.20018 3.92997C8.15851 3.97683 8.10295 4.00183 8.04184 4.00183H1.33336V15.0002H11.1114V11.4539C11.1114 11.3882 11.1336 11.3258 11.1752 11.2789ZM15.5253 4.97356L8.23073 13.1786L5.71957 13.4911C4.99177 13.5817 4.37232 12.8912 4.45287 12.0663L4.73066 9.24169L12.0253 1.03664C12.6614 0.32112 13.6892 0.32112 14.3225 1.03664L15.5226 2.38644C16.1587 3.10196 16.1587 4.26117 15.5253 4.97356ZM12.7808 5.93905L11.1669 4.12369L6.00569 9.93221L5.8029 11.9725L7.61683 11.7444L12.7808 5.93905ZM14.5809 3.44879L13.3808 2.09898C13.267 1.97088 13.0808 1.97088 12.9697 2.09898L12.1114 3.06447L13.7253 4.87983L14.5836 3.91434C14.6948 3.78311 14.6948 3.57689 14.5809 3.44879Z" fill="white"/>
</svg>
