<svg width="40" height="40" viewBox="0 0 40 40" fill="none" xmlns="http://www.w3.org/2000/svg">
<path d="M11.106 17H8.89397C8.40024 17 8 17.4311 8 17.9629V27.0371C8 27.5689 8.40024 28 8.89397 28H11.106C11.5998 28 12 27.5689 12 27.0371V17.9629C12 17.4311 11.5998 17 11.106 17Z" fill="white"/>
<path d="M25.17 29.9909C22.3569 29.9909 17.4479 28.6171 16.6934 28.4026L13.4145 27.8687C13.1723 27.8276 13 27.6268 13 27.3849V17.2074C13 17.0248 13.1025 16.8559 13.2701 16.7738C17.5224 14.6333 18.9662 10.2018 19.581 8.30775C19.8185 7.57753 19.8977 7.33108 20.1259 7.18503C20.7594 6.76972 22.4733 6.99335 23.9171 8.47662C25.4122 10.0147 23.7774 13.4513 23.5492 13.9077C23.307 14.4873 23.4933 14.8341 23.6423 14.9939C26.8933 14.5968 29.1475 15.4001 29.2453 15.4366C29.2546 15.4366 29.2639 15.4411 29.2732 15.4457C30.2979 15.8838 30.8754 16.5 30.9825 17.2804C31.1409 18.4351 30.1861 19.535 29.6225 20.0735C30.0138 20.6257 30.1535 21.1688 30.0417 21.6983C29.9299 22.2231 29.5899 22.6065 29.2825 22.8575C29.6971 23.4052 29.874 23.9848 29.8088 24.5781C29.6971 25.5593 28.9379 26.2804 28.5187 26.609C28.6119 27.6542 28.2765 29.3382 26.3902 29.8676C26.0642 29.9589 25.6451 30 25.17 30V29.9909ZM13.9967 26.9741L16.889 27.4442C16.889 27.4442 16.9263 27.4533 16.9495 27.4579C18.9243 28.0284 24.4248 29.3976 26.1201 28.9229C26.8467 28.7175 27.2845 28.2794 27.4568 27.5766C27.5965 27.0061 27.4987 26.4812 27.4987 26.4767C27.4615 26.2804 27.55 26.0796 27.7223 25.9746C27.7316 25.9701 28.7283 25.3311 28.8215 24.4685C28.868 24.0213 28.6584 23.5649 28.188 23.1039C28.0716 22.9898 28.0204 22.8301 28.0483 22.6749C28.0763 22.5198 28.1834 22.3828 28.3278 22.3189C28.5047 22.2368 28.9845 21.9264 29.0683 21.502C29.1335 21.1734 28.9705 20.7809 28.5699 20.3473C28.4815 20.2469 28.4349 20.1146 28.4442 19.9822C28.4535 19.8499 28.5234 19.7266 28.6258 19.6399C29.045 19.3068 30.1069 18.2525 29.9905 17.4127C29.9346 16.9974 29.562 16.6414 28.8867 16.3494C28.719 16.29 26.5533 15.5826 23.5538 15.9934C23.4374 16.0116 23.3163 15.9842 23.2138 15.9203C22.776 15.642 22.0867 14.7839 22.6317 13.5152C22.6317 13.506 22.641 13.4969 22.6456 13.4878C23.0648 12.648 24.0662 10.0466 23.1906 9.14751C22.1333 8.0613 21.0667 7.92438 20.7407 7.97915C20.6848 8.11607 20.601 8.37165 20.5265 8.60441C19.8838 10.5714 18.4027 15.1308 13.992 17.4995V26.9696L13.9967 26.9741Z" fill="white"/>
</svg>
