<svg width="16" height="17" viewBox="0 0 16 17" fill="none" xmlns="http://www.w3.org/2000/svg">
<path d="M7.70216 2.10438C11.0737 2.10438 13.8158 4.8465 13.8158 8.21806C13.8158 11.5896 11.0737 14.3317 7.70216 14.3317C4.3306 14.3317 1.58848 11.5896 1.58848 8.21806C1.58848 4.8465 4.3306 2.10438 7.70216 2.10438ZM7.70216 0.5159C3.449 0.5159 0 3.96489 0 8.21806C0 12.4712 3.449 15.9202 7.70216 15.9202C11.9553 15.9202 15.4043 12.4712 15.4043 8.21806C15.4043 3.96489 11.9573 0.5159 7.70216 0.5159Z" fill="white"/>
<path d="M14.8086 16.4821C14.5307 16.4821 14.2507 16.3848 14.0243 16.1883L12.0764 14.4846C11.582 14.0518 11.5304 13.2992 11.9633 12.8028C12.3961 12.3064 13.1487 12.2568 13.6451 12.6916L15.593 14.3953C16.0874 14.8281 16.139 15.5807 15.7061 16.0771C15.4698 16.3471 15.1402 16.4841 14.8086 16.4841V16.4821Z" fill="white"/>
<path d="M7.68032 7.44367C8.77365 7.44367 9.65997 6.55735 9.65997 5.46403C9.65997 4.3707 8.77365 3.48438 7.68032 3.48438C6.58699 3.48438 5.70067 4.3707 5.70067 5.46403C5.70067 6.55735 6.58699 7.44367 7.68032 7.44367Z" fill="white"/>
<path d="M4.97394 12.2071C4.48151 12.2071 4.11219 11.7107 4.24324 11.2044C4.67411 9.55437 6.05808 7.77527 7.69819 7.77527C9.3383 7.77527 10.7242 9.55239 11.1531 11.2044C11.2842 11.7088 10.9169 12.2071 10.4224 12.2071H4.97195H4.97394Z" fill="white"/>
</svg>
