<svg width="16" height="17" viewBox="0 0 16 17" fill="none" xmlns="http://www.w3.org/2000/svg">
<path d="M15.5437 11.8062L12.0436 10.3061C11.8941 10.2424 11.728 10.229 11.5701 10.2679C11.4123 10.3068 11.2714 10.3959 11.1686 10.5218L9.61861 12.4155C7.18598 11.2686 5.22828 9.31089 4.08132 6.87826L5.9751 5.32824C6.10126 5.22564 6.19054 5.08472 6.22945 4.92684C6.26836 4.76896 6.25477 4.60269 6.19073 4.45322L4.69071 0.953162C4.62043 0.792037 4.49613 0.660484 4.33925 0.581186C4.18236 0.501889 4.00273 0.479818 3.83132 0.518779L0.58126 1.26879C0.415998 1.30696 0.26855 1.40001 0.162983 1.53276C0.0574151 1.66551 -3.80697e-05 1.83013 1.8926e-08 1.99974C1.8926e-08 10.0155 6.49699 16.5 14.5003 16.5C14.6699 16.5001 14.8346 16.4427 14.9674 16.3371C15.1002 16.2315 15.1933 16.084 15.2315 15.9187L15.9815 12.6687C16.0202 12.4964 15.9977 12.3161 15.9178 12.1587C15.8379 12.0012 15.7056 11.8766 15.5437 11.8062Z" fill="white"/>
</svg>
